<?xml version="1.0" encoding="UTF-8"?>
<svg id="Layer_2" data-name="Layer 2" xmlns="http://www.w3.org/2000/svg" viewBox="0 0 1331.75 72.80011">
  <defs>
    <style>
      .cls-1 {
        fill: #1d1a1a;
      }
    </style>
  </defs>
  <g id="Layer_1-2" data-name="Layer 1">
    <g>
      <g>
        <path class="cls-1" d="M0,1.40005v70h24.5V22.40005h42v10.5H31.5v19.25h49c5.79899,0,10.5-4.70101,10.5-10.5V11.90005c0-5.79899-4.70101-10.5-10.5-10.5H0Z"/>
        <path class="cls-1" d="M189,22.40005V1.40005h-78.75c-5.79899,0-10.5,4.70101-10.5,10.5v49c0,5.79899,4.70101,10.5,10.5,10.5h70c5.79899,0,10.5-4.70101,10.5-10.5v-21c0-5.79899-4.70101-10.5-10.5-10.5h-43.75v14h29.75s0,7,0,7h-42v-28h64.75Z"/>
      </g>
      <g>
        <path class="cls-1" d="M949.0918,59.19214c-11.5542,0-19.8208-8.8418-19.8208-22.74268,0-13.99951,8.2666-22.84131,19.8208-22.84131,7.49805,0,13.63281,3.74121,17.02881,10.18213h17.42578C978.73096,9.3313,965.6084.00024,949.0918.00024c-20.94775,0-36.35303,15.00293-36.35303,36.44922,0,21.34766,15.40527,36.35059,36.35303,36.35059,16.53516,0,29.66748-9.35254,34.46973-23.79004h-17.42676c-3.39307,6.42969-9.53418,10.18213-17.04297,10.18213Z"/>
        <path class="cls-1" d="M319.30713,1.40002h-37.55713v69.99994h16.58179v-25.19507h20.47876c15.0918,0,25.31909-8.56384,25.31909-22.36505,0-13.70227-10.823-22.43982-24.82251-22.43982ZM316.82495,33.59509h-18.49316V14.30798h18.3938c6.0564,0,10.42529,3.38806,10.42529,9.64355,0,6.0567-4.3689,9.64355-10.32593,9.64355Z"/>
        <polygon class="cls-1" points="349.4502 71.39996 402.2876 71.39996 402.2876 58.492 365.73364 58.492 365.73364 42.7049 399.20972 42.7049 399.20972 30.09509 365.73364 30.09509 365.73364 14.30798 402.2876 14.30798 402.2876 1.40002 349.4502 1.40002 349.4502 71.39996"/>
        <polygon class="cls-1" points="479.8501 71.39996 496.33252 71.39996 496.33252 42.7049 527.12769 42.7049 527.12769 30.09509 496.33252 30.09509 496.33252 14.30798 530.4043 14.30798 530.4043 1.40002 479.8501 1.40002 479.8501 71.39996"/>
        <path class="cls-1" d="M569.00342,0c-20.94775,0-36.35303,15.00293-36.35303,36.44971,0,21.34735,15.40527,36.35028,36.35303,36.35028s36.44678-15.00293,36.44678-36.35028c0-21.44678-15.49927-36.44971-36.44678-36.44971ZM569.00342,59.19202c-11.55396,0-19.82056-8.84174-19.82056-22.74231,0-13.99994,8.2666-22.84174,19.82056-22.84174s19.91406,8.8418,19.91406,22.84174c0,13.90057-8.35986,22.74231-19.91406,22.74231Z"/>
        <path class="cls-1" d="M1183.89746,0c-20.948,0-36.35327,15.00293-36.35327,36.44971,0,21.34735,15.40527,36.35028,36.35327,36.35028s36.44678-15.00293,36.44678-36.35028c0-21.44678-15.49927-36.44971-36.44678-36.44971ZM1183.89746,59.19202c-11.5542,0-19.82056-8.84174-19.82056-22.74231,0-13.99994,8.26636-22.84174,19.82056-22.84174s19.91406,8.8418,19.91406,22.84174c0,13.90057-8.35986,22.74231-19.91406,22.74231Z"/>
        <path class="cls-1" d="M790.91431,1.40002l-26.36401,69.99994h16.56079l5.49927-16.08527h27.93091l5.40112,16.08527h17.60791L810.99609,1.40002h-20.08179ZM790.70752,42.7049l9.40015-24.8949c.32861-.00195.33032-.00195.65894-.00397l9.76318,24.89886h-19.82227Z"/>
        <polygon class="cls-1" points="890.10156 49.00983 889.44727 49.00983 865.79907 1.40002 842.55029 1.40002 842.55029 71.39996 858.73486 71.39996 858.73486 23.79022 859.39014 23.79022 884.63477 71.39996 905.79858 71.39996 905.79858 1.40002 889.8125 1.40002 890.10156 49.00983"/>
        <polygon class="cls-1" points="989.90674 71.39996 1042.74414 71.39996 1042.74414 58.492 1006.19019 58.492 1006.19019 42.7049 1039.66626 42.7049 1039.66626 30.09509 1006.19019 30.09509 1006.19019 14.30798 1042.74414 14.30798 1042.74414 1.40002 989.90674 1.40002 989.90674 71.39996"/>
        <polygon class="cls-1" points="1243.12524 1.40002 1226.44434 1.40002 1226.44434 71.39996 1275.09668 71.39996 1275.09668 58.492 1243.12524 58.492 1243.12524 1.40002"/>
        <polygon class="cls-1" points="1331.75 14.30798 1331.75 1.40002 1281.19653 1.40002 1281.19653 71.39996 1297.67847 71.39996 1297.67847 42.7049 1328.4729 42.7049 1328.4729 30.09509 1297.67847 30.09509 1297.67847 14.30798 1331.75 14.30798"/>
        <path class="cls-1" d="M1107.14453,33.59503v12.60986h18.24609c-2.24072,8.95941-10.94897,12.9873-18.29346,12.9873-11.55371,0-19.82031-8.8418-19.82031-22.74268,0-13.99951,8.2666-22.84131,19.82031-22.84131,7.49854,0,13.6333,3.74121,17.0293,10.18213h17.42529C1136.73633,9.33136,1123.61377.00031,1107.09717.00031c-20.94775,0-36.35303,15.00293-36.35303,36.44922,0,21.34766,15.40527,36.35059,36.35303,36.35059,10.25708,0,16.12061-3.6842,21.50146-7.48499l.76221,6.08508h12.29102l-.10449-37.80518h-34.40283Z"/>
        <path class="cls-1" d="M472.62988,23.84015c0-13.70264-10.82275-22.43994-24.82275-22.43994h-37.55664v70h16.58154v-25.19531h4.20044l20.92432,25.19531h20.052l-22.13525-25.28369c13.67432-.92139,22.75635-9.27246,22.75635-22.27637ZM445.3252,33.59503h-18.49316V14.30792h18.39404c6.05615,0,10.42529,3.38818,10.42529,9.64355,0,6.05664-4.36914,9.64355-10.32617,9.64355Z"/>
        <path class="cls-1" d="M673.92969,23.84015c0-13.70264-10.82275-22.43994-24.82275-22.43994h-37.55664v70h16.58154v-25.19531h4.20044l20.92432,25.19531h20.052l-22.13525-25.28369c13.67432-.92139,22.75635-9.27246,22.75635-22.27637ZM646.625,33.59503h-18.49316V14.30792h18.39404c6.05615,0,10.42529,3.38818,10.42529,9.64355,0,6.05664-4.36914,9.64355-10.32617,9.64355Z"/>
        <path class="cls-1" d="M722.08716,33.5957c-.35425-.00061-.32007-.00055-.67432-.00116l-15.50977-32.19458h-22.65308v70h15.58887V23.79028h.68555l20.47559,42.7099h3.5l20.47534-42.71002h.68579v47.6098h15.58887V1.39996h-22.65308l-15.50977,32.19574Z"/>
      </g>
    </g>
  </g>
</svg>