<?xml version="1.0" encoding="UTF-8"?>
<svg id="Layer_2" data-name="Layer 2" xmlns="http://www.w3.org/2000/svg" viewBox="0 0 1327.04337 71.30005">
  <defs>
    <style>
      .cls-1 {
        fill: #fcfafa;
      }
    </style>
  </defs>
  <g id="Layer_1-2" data-name="Layer 1">
    <g>
      <g>
        <path class="cls-1" d="M99.60459,11.18568v48.92857c0,5.39587,4.38978,9.78571,9.78571,9.78571h69.89796c5.39593,0,9.78571-4.38985,9.78571-9.78571v-20.96939c0-5.39587-4.38978-9.78571-9.78571-9.78571h-42.98724v12.58163h29.70663v8.38776h-43.33673v-29.35714h64.65561V1.39996h-77.93622c-5.39593,0-9.78571,4.38985-9.78571,9.78571Z"/>
        <path class="cls-1" d="M89.46939,40.89231V11.18568c0-5.39587-4.38978-9.78571-9.78571-9.78571H0v68.5h23.06633V20.97139h43.33673v11.88265H31.45408v17.82398h48.22959c5.39593,0,9.78571-4.38985,9.78571-9.78571Z"/>
      </g>
      <g>
        <path class="cls-1" d="M1125.38614,64.47168l.67993,5.42847h10.87695l-.10034-36.30518h-32.90479v11.10986h18.45679l-.23315.93188c-2.3291,9.31348-11.49268,13.55542-19.021,13.55542-12.30371,0-20.57031-9.44092-20.57031-23.49268,0-14.1106,8.2666-23.59131,20.57031-23.59131,7.54395,0,13.88818,3.70459,17.47632,10.18213h15.92212C1131.50211,8.51221,1118.80142.00024,1103.14054.00024c-9.98218,0-19.03955,3.53857-25.50317,9.96411-6.51294,6.47461-10.09985,15.61401-10.09985,25.73511,0,10.07788,3.58667,19.18652,10.09937,25.64819,6.46851,6.41797,15.52588,9.95239,25.50366,9.95239,9.85059,0,15.58691-3.47559,21.06885-7.34766l1.02148-.72144.15527,1.24072Z"/>
        <path class="cls-1" d="M787.47672,1.3999l-25.79907,68.5h14.94067l5.32568-15.57788.17358-.50732h29.00635l.17163.51123,5.22949,15.57397h15.98193L806.52188,1.3999h-19.04517ZM807.67276,42.70483h-22.00684l.3833-1.01489,9.40015-24.89502.18213-.48193.51514-.00317.39453-.00244.2644-.00146.51465-.00293.18799.47925,9.76318,24.89893.40137,1.02368Z"/>
        <polygon class="cls-1" points="1238.41861 1.3999 1223.2377 1.3999 1223.2377 69.8999 1270.39005 69.8999 1270.39005 58.49194 1239.16861 58.49194 1238.41861 58.49194 1238.41861 57.74194 1238.41861 1.3999"/>
        <polygon class="cls-1" points="1001.48355 13.55786 1001.48355 12.80786 1002.23355 12.80786 1038.03751 12.80786 1038.03751 1.3999 986.70011 1.3999 986.70011 69.8999 1038.03751 69.8999 1038.03751 58.49194 1002.23355 58.49194 1001.48355 58.49194 1001.48355 57.74194 1001.48355 41.95483 1001.48355 41.20483 1002.23355 41.20483 1034.95963 41.20483 1034.95963 30.09497 1002.23355 30.09497 1001.48355 30.09497 1001.48355 29.34497 1001.48355 13.55786"/>
        <path class="cls-1" d="M645.1503,1.40015h-36.80664v68.5h15.08154v-25.19531h5.30249l.22485.27075,20.69946,24.92456h18.04663l-21.04614-24.03955-.99854-1.14062,1.51221-.10181c13.60522-.91675,22.05688-9.16577,22.05688-21.52808,0-12.77075-9.89917-21.68994-24.07275-21.68994ZM642.66837,33.59497h-19.24316V12.80786h19.14404c6.78882,0,11.17529,4.07959,11.17529,10.39355,0,6.2168-4.45117,10.39355-11.07617,10.39355Z"/>
        <path class="cls-1" d="M945.13516.00024c-9.98218,0-19.03955,3.53857-25.50317,9.96411-6.51294,6.47461-10.09985,15.61401-10.09985,25.73511,0,10.07788,3.58667,19.18652,10.09937,25.64819,6.46851,6.41797,15.52588,9.95239,25.50366,9.95239,15.67578,0,28.38257-8.51221,33.41382-22.29004h-15.92383c-3.59131,6.47754-9.94067,10.18213-17.48999,10.18213-12.30396,0-20.5708-9.44092-20.5708-23.49268,0-14.1106,8.26685-23.59131,20.5708-23.59131,7.5437,0,13.8877,3.70459,17.47583,10.18213h15.92261C973.49674,8.51221,960.79605.00024,945.13516.00024Z"/>
        <path class="cls-1" d="M1179.94083,0c-9.98242,0-19.03955,3.53857-25.50342,9.96411-6.51294,6.47461-10.09985,15.61426-10.09985,25.7356,0,10.07764,3.58667,19.18628,10.09937,25.64795,6.46851,6.41772,15.52588,9.95215,25.50391,9.95215,20.68408,0,35.69678-14.97192,35.69678-35.6001,0-10.11475-3.60327-19.25391-10.14575-25.73462-6.48779-6.42603-15.56201-9.96509-25.55103-9.96509ZM1179.94083,59.19189c-12.30396,0-20.57056-9.44067-20.57056-23.49219,0-14.11108,8.2666-23.5918,20.57056-23.5918,12.35986,0,20.66406,9.48071,20.66406,23.5918,0,14.05151-8.3042,23.49219-20.66406,23.49219Z"/>
        <polygon class="cls-1" points="855.4335 22.29004 855.88468 22.29004 856.0961 22.68872 881.1293 69.8999 901.09195 69.8999 901.09195 1.3999 886.61051 1.3999 886.89493 48.25513 886.89957 49.00977 886.14493 49.00977 885.49063 49.00977 885.02579 49.00977 884.819 48.59351 861.3776 1.3999 839.34366 1.3999 839.34366 69.8999 854.02823 69.8999 854.02823 23.04004 854.02823 22.29004 854.77823 22.29004 855.4335 22.29004"/>
        <polygon class="cls-1" points="741.4545 69.8999 755.54337 69.8999 755.54337 1.3999 734.11148 1.3999 718.80631 33.17114 718.60123 33.59668 718.12906 33.5957 717.9462 33.59521 717.45523 33.59448 716.98477 33.59375 716.78043 33.16992 701.47525 1.3999 680.04337 1.3999 680.04337 69.8999 694.13223 69.8999 694.13223 23.04028 694.13223 22.29028 694.88223 22.29028 695.56778 22.29028 696.03995 22.29028 696.24405 22.71606 716.51554 65 719.0712 65 739.34244 22.71582 739.54654 22.29004 740.01871 22.29004 740.7045 22.29004 741.4545 22.29004 741.4545 23.04004 741.4545 69.8999"/>
        <polygon class="cls-1" points="361.02701 13.55786 361.02701 12.80786 361.77701 12.80786 397.58097 12.80786 397.58097 1.3999 346.24356 1.3999 346.24356 69.8999 397.58097 69.8999 397.58097 58.49194 361.77701 58.49194 361.02701 58.49194 361.02701 57.74194 361.02701 41.95483 361.02701 41.20483 361.77701 41.20483 394.50308 41.20483 394.50308 30.09497 361.77701 30.09497 361.02701 30.09497 361.02701 29.34497 361.02701 13.55786"/>
        <path class="cls-1" d="M590.59781,9.96509c-6.48779-6.42603-15.56201-9.96509-25.55103-9.96509-9.98218,0-19.03955,3.53857-25.50317,9.96411-6.51294,6.47461-10.09985,15.61426-10.09985,25.7356,0,10.07764,3.58667,19.18628,10.09937,25.64795,6.46851,6.41772,15.52588,9.95215,25.50366,9.95215,20.68408,0,35.69678-14.97192,35.69678-35.6001,0-10.11475-3.60327-19.25391-10.14575-25.73462ZM565.04679,59.19189c-12.30396,0-20.57056-9.44067-20.57056-23.49219,0-14.11108,8.2666-23.5918,20.57056-23.5918,12.35986,0,20.66406,9.48071,20.66406,23.5918,0,14.05151-8.3042,23.49219-20.66406,23.49219Z"/>
        <path class="cls-1" d="M314.85391,44.70483c14.92505,0,24.56909-8.48438,24.56909-21.61499,0-12.77075-9.89893-21.68994-24.07251-21.68994h-36.80713v68.5h15.08179v-25.19507h21.22876ZM293.62515,32.84497V12.80786h19.1438c6.78882,0,11.17529,4.07959,11.17529,10.39355,0,6.2168-4.45117,10.39355-11.07593,10.39355h-19.24316v-.75Z"/>
        <path class="cls-1" d="M443.8505,1.40015h-36.80664v68.5h15.08154v-25.19531h5.30249l.22485.27075,20.69946,24.92456h18.04663l-21.04614-24.03955-.99854-1.14062,1.51221-.10181c13.60522-.91675,22.05688-9.16577,22.05688-21.52808,0-12.77075-9.89917-21.68994-24.07275-21.68994ZM441.36856,33.59497h-19.24316V12.80786h19.14404c6.78882,0,11.17529,4.07959,11.17529,10.39355,0,6.2168-4.45117,10.39355-11.07617,10.39355Z"/>
        <polygon class="cls-1" points="1323.76627 41.20483 1323.76627 30.09497 1293.72183 30.09497 1292.97183 30.09497 1292.97183 29.34497 1292.97183 13.55786 1292.97183 12.80786 1293.72183 12.80786 1327.04337 12.80786 1327.04337 1.3999 1277.9899 1.3999 1277.9899 69.8999 1292.97183 69.8999 1292.97183 41.95483 1292.97183 41.20483 1293.72183 41.20483 1323.76627 41.20483"/>
        <polygon class="cls-1" points="522.42105 41.20483 522.42105 30.09497 492.37589 30.09497 491.62589 30.09497 491.62589 29.34497 491.62589 13.55786 491.62589 12.80786 492.37589 12.80786 525.69766 12.80786 525.69766 1.3999 476.64347 1.3999 476.64347 69.8999 491.62589 69.8999 491.62589 41.95483 491.62589 41.20483 492.37589 41.20483 522.42105 41.20483"/>
      </g>
    </g>
  </g>
</svg>