<?xml version="1.0" encoding="UTF-8"?>
<svg id="Layer_2" data-name="Layer 2" xmlns="http://www.w3.org/2000/svg" viewBox="0 0 545 200">
  <defs>
    <style>
      .cls-1 {
        fill: #fd3300;
      }
    </style>
  </defs>
  <g id="Layer_1-2" data-name="Layer 1">
    <g>
      <path class="cls-1" d="M0,0v200h70V60h120v30h-100v55h140c16.56854,0,30-13.43146,30-30V30c0-16.56854-13.43146-30-30-30H0Z"/>
      <path class="cls-1" d="M540,60V0h-225c-16.56854,0-30,13.43146-30,30v140c0,16.56854,13.43146,30,30,30h200c16.56854,0,30-13.43146,30-30v-60c0-16.56854-13.43146-30-30-30h-125v40h85s0,20,0,20h-120V60h185Z"/>
    </g>
  </g>
</svg>