<?xml version="1.0" encoding="UTF-8"?>
<svg id="Layer_2" data-name="Layer 2" xmlns="http://www.w3.org/2000/svg" viewBox="0 0 541 196">
  <defs>
    <style>
      .cls-1 {
        fill: #fcfafa;
      }
    </style>
  </defs>
  <g id="Layer_1-2" data-name="Layer 1">
    <g>
      <path class="cls-1" d="M285,28v140c0,15.43927,12.56055,28,28,28h200c15.43945,0,28-12.56073,28-28v-60c0-15.43927-12.56055-28-28-28h-123v36h85v24h-124V56h185V0h-223c-15.43945,0-28,12.56073-28,28Z"/>
      <path class="cls-1" d="M256,113V28c0-15.43927-12.56055-28-28-28H0v196h66V56h124v34h-100v51h138c15.43945,0,28-12.56073,28-28Z"/>
    </g>
  </g>
</svg>