<?xml version="1.0" encoding="UTF-8"?>
<svg id="Layer_2" data-name="Layer 2" xmlns="http://www.w3.org/2000/svg" viewBox="0 0 1050 72.80011">
  <defs>
    <style>
      .cls-1 {
        fill: #FCFAFA;
      }
    </style>
  </defs>
  <g id="Layer_1-2" data-name="Layer 1">
    <g>
      <path class="cls-1" d="M667.3418,59.19214c-11.5542,0-19.8208-8.8418-19.8208-22.74268,0-13.99951,8.2666-22.84131,19.8208-22.84131,7.49805,0,13.63281,3.74121,17.02881,10.18213h17.42578C696.98096,9.3313,683.8584.00024,667.3418.00024c-20.94775,0-36.35303,15.00293-36.35303,36.44922,0,21.34766,15.40527,36.35059,36.35303,36.35059,16.53516,0,29.66748-9.35254,34.46973-23.79004h-17.42676c-3.39307,6.42969-9.53418,10.18213-17.04297,10.18213Z"/>
      <path class="cls-1" d="M37.55713,1.40002H0v69.99994h16.58179v-25.19507h20.47876c15.0918,0,25.31909-8.56384,25.31909-22.36505,0-13.70227-10.823-22.43982-24.82251-22.43982ZM35.07495,33.59509h-18.49316V14.30798h18.3938c6.0564,0,10.42529,3.38806,10.42529,9.64355,0,6.0567-4.3689,9.64355-10.32593,9.64355Z"/>
      <polygon class="cls-1" points="67.7002 71.39996 120.5376 71.39996 120.5376 58.492 83.98364 58.492 83.98364 42.7049 117.45972 42.7049 117.45972 30.09509 83.98364 30.09509 83.98364 14.30798 120.5376 14.30798 120.5376 1.40002 67.7002 1.40002 67.7002 71.39996"/>
      <polygon class="cls-1" points="198.1001 71.39996 214.58252 71.39996 214.58252 42.7049 245.37769 42.7049 245.37769 30.09509 214.58252 30.09509 214.58252 14.30798 248.6543 14.30798 248.6543 1.40002 198.1001 1.40002 198.1001 71.39996"/>
      <path class="cls-1" d="M287.25342,0c-20.94775,0-36.35303,15.00293-36.35303,36.44971,0,21.34735,15.40527,36.35028,36.35303,36.35028s36.44678-15.00293,36.44678-36.35028c0-21.44678-15.49927-36.44971-36.44678-36.44971ZM287.25342,59.19202c-11.55396,0-19.82056-8.84174-19.82056-22.74231,0-13.99994,8.2666-22.84174,19.82056-22.84174s19.91406,8.8418,19.91406,22.84174c0,13.90057-8.35986,22.74231-19.91406,22.74231Z"/>
      <path class="cls-1" d="M902.14746,0c-20.948,0-36.35327,15.00293-36.35327,36.44971,0,21.34735,15.40527,36.35028,36.35327,36.35028s36.44678-15.00293,36.44678-36.35028c0-21.44678-15.49927-36.44971-36.44678-36.44971ZM902.14746,59.19202c-11.5542,0-19.82056-8.84174-19.82056-22.74231,0-13.99994,8.26636-22.84174,19.82056-22.84174s19.91406,8.8418,19.91406,22.84174c0,13.90057-8.35986,22.74231-19.91406,22.74231Z"/>
      <path class="cls-1" d="M509.16431,1.40002l-26.36401,69.99994h16.56079l5.49927-16.08527h27.93091l5.40112,16.08527h17.60791L529.24609,1.40002h-20.08179ZM508.95752,42.7049l9.40015-24.8949c.32861-.00195.33032-.00195.65894-.00397l9.76318,24.89886h-19.82227Z"/>
      <polygon class="cls-1" points="608.35156 49.00983 607.69727 49.00983 584.04907 1.40002 560.80029 1.40002 560.80029 71.39996 576.98486 71.39996 576.98486 23.79022 577.64014 23.79022 602.88477 71.39996 624.04858 71.39996 624.04858 1.40002 608.0625 1.40002 608.35156 49.00983"/>
      <polygon class="cls-1" points="708.15674 71.39996 760.99414 71.39996 760.99414 58.492 724.44019 58.492 724.44019 42.7049 757.91626 42.7049 757.91626 30.09509 724.44019 30.09509 724.44019 14.30798 760.99414 14.30798 760.99414 1.40002 708.15674 1.40002 708.15674 71.39996"/>
      <polygon class="cls-1" points="961.37524 1.40002 944.69434 1.40002 944.69434 71.39996 993.34668 71.39996 993.34668 58.492 961.37524 58.492 961.37524 1.40002"/>
      <polygon class="cls-1" points="1050 14.30798 1050 1.40002 999.44653 1.40002 999.44653 71.39996 1015.92847 71.39996 1015.92847 42.7049 1046.7229 42.7049 1046.7229 30.09509 1015.92847 30.09509 1015.92847 14.30798 1050 14.30798"/>
      <path class="cls-1" d="M825.39453,33.59503v12.60986h18.24609c-2.24072,8.95941-10.94897,12.9873-18.29346,12.9873-11.55371,0-19.82031-8.8418-19.82031-22.74268,0-13.99951,8.2666-22.84131,19.82031-22.84131,7.49854,0,13.6333,3.74121,17.0293,10.18213h17.42529C854.98633,9.33136,841.86377.00031,825.34717.00031c-20.94775,0-36.35303,15.00293-36.35303,36.44922,0,21.34766,15.40527,36.35059,36.35303,36.35059,10.25708,0,16.12061-3.6842,21.50146-7.48499l.76221,6.08508h12.29102l-.10449-37.80518h-34.40283Z"/>
      <path class="cls-1" d="M190.87988,23.84015c0-13.70264-10.82275-22.43994-24.82275-22.43994h-37.55664v70h16.58154v-25.19531h4.20044l20.92432,25.19531h20.052l-22.13525-25.28369c13.67432-.92139,22.75635-9.27246,22.75635-22.27637ZM163.5752,33.59503h-18.49316V14.30792h18.39404c6.05615,0,10.42529,3.38818,10.42529,9.64355,0,6.05664-4.36914,9.64355-10.32617,9.64355Z"/>
      <path class="cls-1" d="M392.17969,23.84015c0-13.70264-10.82275-22.43994-24.82275-22.43994h-37.55664v70h16.58154v-25.19531h4.20044l20.92432,25.19531h20.052l-22.13525-25.28369c13.67432-.92139,22.75635-9.27246,22.75635-22.27637ZM364.875,33.59503h-18.49316V14.30792h18.39404c6.05615,0,10.42529,3.38818,10.42529,9.64355,0,6.05664-4.36914,9.64355-10.32617,9.64355Z"/>
      <path class="cls-1" d="M440.33716,33.5957c-.35425-.00061-.32007-.00055-.67432-.00116l-15.50977-32.19458h-22.65308v70h15.58887V23.79028h.68555l20.47559,42.7099h3.5l20.47534-42.71002h.68579v47.6098h15.58887V1.39996h-22.65308l-15.50977,32.19574Z"/>
    </g>
  </g>
</svg>