<?xml version="1.0" encoding="UTF-8"?>
<svg id="Layer_2" data-name="Layer 2" xmlns="http://www.w3.org/2000/svg" viewBox="0 0 1048.5 71.30005">
  <defs>
    <style>
      .cls-1 {
        fill: #fcfafa;
      }
    </style>
  </defs>
  <g id="Layer_1-2" data-name="Layer 1">
    <g>
      <path class="cls-1" d="M846.84277,64.47168l.67993,5.42847h10.87695l-.10034-36.30518h-32.90479v11.10986h18.45679l-.23315.93188c-2.3291,9.31348-11.49268,13.55542-19.021,13.55542-12.30371,0-20.57031-9.44092-20.57031-23.49268,0-14.1106,8.2666-23.59131,20.57031-23.59131,7.54395,0,13.88818,3.70459,17.47632,10.18213h15.92212C852.95874,8.51221,840.25806.00024,824.59717.00024c-9.98218,0-19.03955,3.53857-25.50317,9.96411-6.51294,6.47461-10.09985,15.61401-10.09985,25.73511,0,10.07788,3.58667,19.18652,10.09937,25.64819,6.46851,6.41797,15.52588,9.95239,25.50366,9.95239,9.85059,0,15.58691-3.47559,21.06885-7.34766l1.02148-.72144.15527,1.24072Z"/>
      <path class="cls-1" d="M508.93335,1.3999l-25.79907,68.5h14.94067l5.32568-15.57788.17358-.50732h29.00635l.17163.51123,5.22949,15.57397h15.98193L527.97852,1.3999h-19.04517ZM529.12939,42.70483h-22.00684l.3833-1.01489,9.40015-24.89502.18213-.48193.51514-.00317.39453-.00244.2644-.00146.51465-.00293.18799.47925,9.76318,24.89893.40137,1.02368Z"/>
      <polygon class="cls-1" points="959.87524 1.3999 944.69434 1.3999 944.69434 69.8999 991.84668 69.8999 991.84668 58.49194 960.62524 58.49194 959.87524 58.49194 959.87524 57.74194 959.87524 1.3999"/>
      <polygon class="cls-1" points="722.94019 13.55786 722.94019 12.80786 723.69019 12.80786 759.49414 12.80786 759.49414 1.3999 708.15674 1.3999 708.15674 69.8999 759.49414 69.8999 759.49414 58.49194 723.69019 58.49194 722.94019 58.49194 722.94019 57.74194 722.94019 41.95483 722.94019 41.20483 723.69019 41.20483 756.41626 41.20483 756.41626 30.09497 723.69019 30.09497 722.94019 30.09497 722.94019 29.34497 722.94019 13.55786"/>
      <path class="cls-1" d="M366.60693,1.40015h-36.80664v68.5h15.08154v-25.19531h5.30249l.22485.27075,20.69946,24.92456h18.04663l-21.04614-24.03955-.99854-1.14062,1.51221-.10181c13.60522-.91675,22.05688-9.16577,22.05688-21.52808,0-12.77075-9.89917-21.68994-24.07275-21.68994ZM364.125,33.59497h-19.24316V12.80786h19.14404c6.78882,0,11.17529,4.07959,11.17529,10.39355,0,6.2168-4.45117,10.39355-11.07617,10.39355Z"/>
      <path class="cls-1" d="M666.5918.00024c-9.98218,0-19.03955,3.53857-25.50317,9.96411-6.51294,6.47461-10.09985,15.61401-10.09985,25.73511,0,10.07788,3.58667,19.18652,10.09937,25.64819,6.46851,6.41797,15.52588,9.95239,25.50366,9.95239,15.67578,0,28.38257-8.51221,33.41382-22.29004h-15.92383c-3.59131,6.47754-9.94067,10.18213-17.48999,10.18213-12.30396,0-20.5708-9.44092-20.5708-23.49268,0-14.1106,8.26685-23.59131,20.5708-23.59131,7.5437,0,13.8877,3.70459,17.47583,10.18213h15.92261C694.95337,8.51221,682.25269.00024,666.5918.00024Z"/>
      <path class="cls-1" d="M901.39746,0c-9.98242,0-19.03955,3.53857-25.50342,9.96411-6.51294,6.47461-10.09985,15.61426-10.09985,25.7356,0,10.07764,3.58667,19.18628,10.09937,25.64795,6.46851,6.41772,15.52588,9.95215,25.50391,9.95215,20.68408,0,35.69678-14.97192,35.69678-35.6001,0-10.11475-3.60327-19.25391-10.14575-25.73462-6.48779-6.42603-15.56201-9.96509-25.55103-9.96509ZM901.39746,59.19189c-12.30396,0-20.57056-9.44067-20.57056-23.49219,0-14.11108,8.2666-23.5918,20.57056-23.5918,12.35986,0,20.66406,9.48071,20.66406,23.5918,0,14.05151-8.3042,23.49219-20.66406,23.49219Z"/>
      <polygon class="cls-1" points="576.89014 22.29004 577.34131 22.29004 577.55273 22.68872 602.58594 69.8999 622.54858 69.8999 622.54858 1.3999 608.06714 1.3999 608.35156 48.25513 608.3562 49.00977 607.60156 49.00977 606.94727 49.00977 606.48242 49.00977 606.27563 48.59351 582.83423 1.3999 560.80029 1.3999 560.80029 69.8999 575.48486 69.8999 575.48486 23.04004 575.48486 22.29004 576.23486 22.29004 576.89014 22.29004"/>
      <polygon class="cls-1" points="462.91113 69.8999 477 69.8999 477 1.3999 455.56812 1.3999 440.26294 33.17114 440.05786 33.59668 439.58569 33.5957 439.40283 33.59521 438.91187 33.59448 438.44141 33.59375 438.23706 33.16992 422.93188 1.3999 401.5 1.3999 401.5 69.8999 415.58887 69.8999 415.58887 23.04028 415.58887 22.29028 416.33887 22.29028 417.02441 22.29028 417.49658 22.29028 417.70068 22.71606 437.97217 65 440.52783 65 460.79907 22.71582 461.00317 22.29004 461.47534 22.29004 462.16113 22.29004 462.91113 22.29004 462.91113 23.04004 462.91113 69.8999"/>
      <polygon class="cls-1" points="82.48364 13.55786 82.48364 12.80786 83.23364 12.80786 119.0376 12.80786 119.0376 1.3999 67.7002 1.3999 67.7002 69.8999 119.0376 69.8999 119.0376 58.49194 83.23364 58.49194 82.48364 58.49194 82.48364 57.74194 82.48364 41.95483 82.48364 41.20483 83.23364 41.20483 115.95972 41.20483 115.95972 30.09497 83.23364 30.09497 82.48364 30.09497 82.48364 29.34497 82.48364 13.55786"/>
      <path class="cls-1" d="M312.05444,9.96509c-6.48779-6.42603-15.56201-9.96509-25.55103-9.96509-9.98218,0-19.03955,3.53857-25.50317,9.96411-6.51294,6.47461-10.09985,15.61426-10.09985,25.7356,0,10.07764,3.58667,19.18628,10.09937,25.64795,6.46851,6.41772,15.52588,9.95215,25.50366,9.95215,20.68408,0,35.69678-14.97192,35.69678-35.6001,0-10.11475-3.60327-19.25391-10.14575-25.73462ZM286.50342,59.19189c-12.30396,0-20.57056-9.44067-20.57056-23.49219,0-14.11108,8.2666-23.5918,20.57056-23.5918,12.35986,0,20.66406,9.48071,20.66406,23.5918,0,14.05151-8.3042,23.49219-20.66406,23.49219Z"/>
      <path class="cls-1" d="M36.31055,44.70483c14.92505,0,24.56909-8.48438,24.56909-21.61499,0-12.77075-9.89893-21.68994-24.07251-21.68994H0v68.5h15.08179v-25.19507h21.22876ZM15.08179,32.84497V12.80786h19.1438c6.78882,0,11.17529,4.07959,11.17529,10.39355,0,6.2168-4.45117,10.39355-11.07593,10.39355H15.08179v-.75Z"/>
      <path class="cls-1" d="M165.30713,1.40015h-36.80664v68.5h15.08154v-25.19531h5.30249l.22485.27075,20.69946,24.92456h18.04663l-21.04614-24.03955-.99854-1.14062,1.51221-.10181c13.60522-.91675,22.05688-9.16577,22.05688-21.52808,0-12.77075-9.89917-21.68994-24.07275-21.68994ZM162.8252,33.59497h-19.24316V12.80786h19.14404c6.78882,0,11.17529,4.07959,11.17529,10.39355,0,6.2168-4.45117,10.39355-11.07617,10.39355Z"/>
      <polygon class="cls-1" points="1045.2229 41.20483 1045.2229 30.09497 1015.17847 30.09497 1014.42847 30.09497 1014.42847 29.34497 1014.42847 13.55786 1014.42847 12.80786 1015.17847 12.80786 1048.5 12.80786 1048.5 1.3999 999.44653 1.3999 999.44653 69.8999 1014.42847 69.8999 1014.42847 41.95483 1014.42847 41.20483 1015.17847 41.20483 1045.2229 41.20483"/>
      <polygon class="cls-1" points="243.87769 41.20483 243.87769 30.09497 213.83252 30.09497 213.08252 30.09497 213.08252 29.34497 213.08252 13.55786 213.08252 12.80786 213.83252 12.80786 247.1543 12.80786 247.1543 1.3999 198.1001 1.3999 198.1001 69.8999 213.08252 69.8999 213.08252 41.95483 213.08252 41.20483 213.83252 41.20483 243.87769 41.20483"/>
    </g>
  </g>
</svg>