<?xml version="1.0" encoding="UTF-8"?>
<svg id="Layer_2" data-name="Layer 2" xmlns="http://www.w3.org/2000/svg" width="675.00018" height="200" viewBox="0 0 675.00018 200">
  <defs>
    <style>
      .cls-1 {
        fill: #1d1a1a;
      }
    </style>
  </defs>
  <g id="Layer_1-2" data-name="Layer 1">
    <g>
      <path class="cls-1" d="M655.00018,0h-90v60h40v140h70V20c0-11.0459-8.95435-20-20-20Z"/>
      <path class="cls-1" d="M230,0H0v200h70V60h120v30h-100v55h140c16.56854,0,30-13.43164,30-30V30c0-16.56885-13.43146-30-30-30Z"/>
      <path class="cls-1" d="M514.99994,80h-124.99994v40h84.99994v20h-119.99994V60h184.99994V0h-224.99994c-16.56854,0-30,13.43115-30,30v140c0,16.56836,13.43146,30,30,30h199.99994c16.5686,0,30-13.43164,30-30v-60c0-16.56885-13.4314-30-30-30Z"/>
    </g>
  </g>
</svg>